<?xml version="1.0" standalone="no"?>
<!DOCTYPE svg PUBLIC "-//W3C//DTD SVG 20010904//EN"
 "http://www.w3.org/TR/2001/REC-SVG-20010904/DTD/svg10.dtd">
<svg version="1.0" xmlns="http://www.w3.org/2000/svg"
 width="393.000000pt" height="272.000000pt" viewBox="0 0 393.000000 272.000000"
 preserveAspectRatio="xMidYMid meet">
<metadata>
Created by potrace 1.16, written by Peter Selinger 2001-2019
</metadata>
<g transform="translate(0.000000,272.000000) scale(0.100000,-0.100000)"
fill="#000000" stroke="none">
<path d="M1761 2615 c18 -24 40 -53 50 -64 11 -11 19 -22 19 -25 0 -8 102
-141 111 -144 5 -2 9 -10 9 -17 0 -8 6 -18 13 -22 6 -4 25 -26 40 -49 15 -22
36 -50 47 -62 11 -12 20 -25 20 -29 0 -5 8 -16 18 -25 9 -8 33 -38 52 -66 19
-28 38 -51 43 -52 4 0 7 -6 7 -13 0 -8 9 -22 20 -32 20 -18 20 -31 20 -947 l0
-930 -40 51 c-22 28 -40 53 -40 55 0 11 -64 96 -72 96 -4 0 -8 5 -8 10 0 17
-98 141 -144 183 -22 21 -58 48 -78 59 -39 22 -49 38 -24 38 24 0 120 31 164
53 203 102 217 373 27 503 -73 49 -128 56 -522 61 l-363 5 0 -576 0 -576 85 0
85 0 0 255 0 255 143 0 c106 0 149 -4 171 -15 15 -8 34 -15 41 -15 21 0 175
-166 175 -189 0 -6 4 -11 9 -11 6 0 27 -26 48 -57 20 -32 40 -60 43 -63 3 -3
13 -16 22 -30 10 -14 31 -44 48 -68 16 -23 30 -47 30 -52 0 -6 75 -10 190 -10
l190 0 0 938 c0 923 1 937 21 962 11 14 36 49 56 78 20 30 42 56 50 59 7 3 13
9 13 15 0 8 111 153 145 189 8 9 15 21 15 27 0 7 4 12 10 12 5 0 28 27 50 60
22 33 44 60 48 60 4 0 12 9 17 20 6 11 32 47 58 80 l48 60 -103 0 -103 -1 -35
-51 c-19 -28 -43 -58 -52 -66 -10 -9 -18 -22 -18 -29 0 -7 -4 -13 -8 -13 -4 0
-15 -12 -24 -27 -9 -16 -25 -38 -35 -50 -10 -11 -25 -31 -33 -43 -25 -37 -68
-94 -84 -112 -9 -10 -16 -21 -17 -25 0 -5 -16 -28 -35 -53 -19 -25 -37 -53
-41 -63 -7 -22 -25 -17 -39 11 -6 12 -18 30 -27 40 -10 10 -17 23 -17 29 0 6
-4 13 -8 15 -4 2 -18 20 -31 41 -12 20 -27 37 -32 37 -5 0 -9 5 -9 11 0 6 -9
23 -20 37 -81 106 -100 133 -100 141 0 5 -4 11 -9 13 -12 4 -111 137 -111 149
0 5 -48 9 -111 9 l-110 0 32 -45z m65 -1509 c69 -18 113 -52 135 -104 24 -54
24 -79 1 -128 -27 -60 -62 -90 -130 -113 -55 -19 -85 -21 -297 -21 l-235 0 0
190 0 190 238 0 c168 0 252 -4 288 -14z"/>
<path d="M910 2050 l0 -570 278 0 c315 0 436 13 517 54 57 29 125 89 125 111
0 8 3 15 8 15 19 0 36 70 36 150 0 75 -3 91 -28 132 -33 57 -82 97 -154 128
l-53 23 33 16 c89 43 156 158 145 249 -9 81 -74 179 -138 208 -109 52 -83 49
-436 52 l-333 3 0 -571z m639 419 c45 -18 73 -47 89 -90 32 -93 1 -170 -87
-211 -42 -20 -66 -22 -263 -26 l-218 -4 0 175 0 176 28 3 c69 8 419 -10 451
-23z m-16 -475 c40 -9 86 -25 102 -36 38 -26 75 -97 75 -146 0 -53 -40 -122
-91 -157 l-44 -30 -252 -3 -253 -3 0 195 0 196 196 0 c142 0 215 -4 267 -16z"/>
<path d="M40 675 l0 -575 485 0 485 0 0 70 0 70 -400 0 -400 0 0 195 0 195
360 0 360 0 0 65 0 65 -360 0 -360 0 0 175 0 175 385 0 385 0 0 70 0 70 -470
0 -470 0 0 -575z"/>
<path d="M2560 675 l0 -575 85 0 85 0 1 483 c0 362 3 476 11 457 37 -82 48
-110 48 -119 0 -6 9 -30 19 -53 28 -63 57 -135 81 -203 12 -33 30 -78 39 -100
10 -22 23 -56 30 -75 40 -110 54 -146 62 -155 5 -5 9 -18 9 -30 0 -11 6 -29
14 -40 7 -11 17 -31 21 -45 4 -14 16 -46 28 -73 l21 -47 78 0 c68 0 78 2 78
18 0 10 5 23 10 28 10 10 26 50 72 174 11 30 24 59 29 65 5 5 9 15 9 23 0 8 9
33 19 56 11 23 29 68 42 101 25 68 36 95 73 179 14 32 26 63 26 70 1 6 9 29
20 51 11 22 19 45 20 50 0 6 9 28 19 50 11 22 24 51 30 65 7 17 10 -120 10
-452 l1 -478 85 0 85 0 0 575 0 575 -114 0 -113 0 -21 -42 c-36 -76 -62 -138
-62 -148 0 -10 -15 -47 -61 -148 -10 -23 -19 -47 -19 -53 0 -5 -9 -29 -20 -51
-11 -23 -20 -47 -20 -52 -1 -6 -9 -29 -20 -51 -11 -22 -19 -44 -20 -50 0 -5
-9 -28 -19 -50 -11 -22 -29 -67 -41 -100 -21 -59 -40 -107 -76 -194 -10 -24
-20 -37 -22 -30 -3 8 -13 33 -23 56 -11 23 -19 49 -19 57 0 9 -9 35 -19 58
-28 63 -57 135 -81 203 -12 33 -30 78 -41 100 -10 22 -19 46 -19 52 0 7 -8 32
-19 55 -10 24 -24 59 -31 78 -6 19 -21 58 -32 85 -39 97 -70 180 -75 203 -5
21 -9 22 -139 22 l-134 0 0 -575z"/>
</g>
</svg>
